<mxfile host="app.diagrams.net" agent="Mozilla/5.0 (Windows NT 10.0; Win64; x64) AppleWebKit/537.36 (KHTML, like Gecko) Chrome/133.0.0.0 Safari/537.36" version="26.0.16">
  <diagram id="C5RBs43oDa-KdzZeNtuy" name="Page-1">
    <mxGraphModel dx="800" dy="783" grid="1" gridSize="10" guides="1" tooltips="1" connect="1" arrows="1" fold="1" page="1" pageScale="1" pageWidth="827" pageHeight="1169" math="0" shadow="0">
      <root>
        <mxCell id="WIyWlLk6GJQsqaUBKTNV-0" />
        <mxCell id="WIyWlLk6GJQsqaUBKTNV-1" parent="WIyWlLk6GJQsqaUBKTNV-0" />
        <mxCell id="mqw0G9-Hf6dsnu3yhuq2-13" value="" style="edgeStyle=orthogonalEdgeStyle;rounded=0;orthogonalLoop=1;jettySize=auto;html=1;" edge="1" parent="WIyWlLk6GJQsqaUBKTNV-1" source="WIyWlLk6GJQsqaUBKTNV-3" target="mqw0G9-Hf6dsnu3yhuq2-5">
          <mxGeometry relative="1" as="geometry" />
        </mxCell>
        <mxCell id="WIyWlLk6GJQsqaUBKTNV-3" value="Initialize components" style="rounded=1;whiteSpace=wrap;html=1;fontSize=12;glass=0;strokeWidth=1;shadow=0;" parent="WIyWlLk6GJQsqaUBKTNV-1" vertex="1">
          <mxGeometry x="10" y="310" width="120" height="40" as="geometry" />
        </mxCell>
        <mxCell id="mqw0G9-Hf6dsnu3yhuq2-3" value="" style="edgeStyle=orthogonalEdgeStyle;rounded=0;orthogonalLoop=1;jettySize=auto;html=1;" edge="1" parent="WIyWlLk6GJQsqaUBKTNV-1" source="mqw0G9-Hf6dsnu3yhuq2-2" target="WIyWlLk6GJQsqaUBKTNV-3">
          <mxGeometry relative="1" as="geometry" />
        </mxCell>
        <mxCell id="mqw0G9-Hf6dsnu3yhuq2-2" value="Start" style="ellipse;whiteSpace=wrap;html=1;" vertex="1" parent="WIyWlLk6GJQsqaUBKTNV-1">
          <mxGeometry x="10" y="220" width="120" height="40" as="geometry" />
        </mxCell>
        <mxCell id="mqw0G9-Hf6dsnu3yhuq2-12" value="" style="edgeStyle=orthogonalEdgeStyle;rounded=0;orthogonalLoop=1;jettySize=auto;html=1;" edge="1" parent="WIyWlLk6GJQsqaUBKTNV-1" source="mqw0G9-Hf6dsnu3yhuq2-5" target="mqw0G9-Hf6dsnu3yhuq2-6">
          <mxGeometry relative="1" as="geometry" />
        </mxCell>
        <mxCell id="mqw0G9-Hf6dsnu3yhuq2-5" value="Read color sensor data" style="rounded=1;whiteSpace=wrap;html=1;" vertex="1" parent="WIyWlLk6GJQsqaUBKTNV-1">
          <mxGeometry x="10" y="400" width="120" height="60" as="geometry" />
        </mxCell>
        <mxCell id="mqw0G9-Hf6dsnu3yhuq2-11" value="" style="edgeStyle=orthogonalEdgeStyle;rounded=0;orthogonalLoop=1;jettySize=auto;html=1;" edge="1" parent="WIyWlLk6GJQsqaUBKTNV-1" source="mqw0G9-Hf6dsnu3yhuq2-6" target="mqw0G9-Hf6dsnu3yhuq2-10">
          <mxGeometry relative="1" as="geometry" />
        </mxCell>
        <mxCell id="mqw0G9-Hf6dsnu3yhuq2-6" value="Send data to Arduino" style="rounded=1;whiteSpace=wrap;html=1;" vertex="1" parent="WIyWlLk6GJQsqaUBKTNV-1">
          <mxGeometry x="10" y="510" width="120" height="60" as="geometry" />
        </mxCell>
        <mxCell id="mqw0G9-Hf6dsnu3yhuq2-24" value="" style="edgeStyle=orthogonalEdgeStyle;rounded=0;orthogonalLoop=1;jettySize=auto;html=1;entryX=0;entryY=0.5;entryDx=0;entryDy=0;" edge="1" parent="WIyWlLk6GJQsqaUBKTNV-1" source="mqw0G9-Hf6dsnu3yhuq2-10" target="mqw0G9-Hf6dsnu3yhuq2-19">
          <mxGeometry relative="1" as="geometry">
            <Array as="points">
              <mxPoint x="70" y="870" />
              <mxPoint x="70" y="870" />
            </Array>
          </mxGeometry>
        </mxCell>
        <mxCell id="mqw0G9-Hf6dsnu3yhuq2-26" value="" style="edgeStyle=orthogonalEdgeStyle;rounded=0;orthogonalLoop=1;jettySize=auto;html=1;entryX=0;entryY=0.5;entryDx=0;entryDy=0;" edge="1" parent="WIyWlLk6GJQsqaUBKTNV-1" source="mqw0G9-Hf6dsnu3yhuq2-10" target="mqw0G9-Hf6dsnu3yhuq2-27">
          <mxGeometry relative="1" as="geometry">
            <mxPoint x="110" y="935" as="targetPoint" />
            <Array as="points">
              <mxPoint x="70" y="870" />
              <mxPoint x="70" y="980" />
            </Array>
          </mxGeometry>
        </mxCell>
        <mxCell id="mqw0G9-Hf6dsnu3yhuq2-42" style="edgeStyle=orthogonalEdgeStyle;rounded=0;orthogonalLoop=1;jettySize=auto;html=1;entryX=0;entryY=0.5;entryDx=0;entryDy=0;" edge="1" parent="WIyWlLk6GJQsqaUBKTNV-1" source="mqw0G9-Hf6dsnu3yhuq2-10" target="mqw0G9-Hf6dsnu3yhuq2-14">
          <mxGeometry relative="1" as="geometry" />
        </mxCell>
        <mxCell id="mqw0G9-Hf6dsnu3yhuq2-10" value="&amp;nbsp; &amp;nbsp;Determine the object&#39;s color" style="rounded=1;whiteSpace=wrap;html=1;" vertex="1" parent="WIyWlLk6GJQsqaUBKTNV-1">
          <mxGeometry x="10" y="620" width="120" height="60" as="geometry" />
        </mxCell>
        <mxCell id="mqw0G9-Hf6dsnu3yhuq2-29" value="" style="edgeStyle=orthogonalEdgeStyle;rounded=0;orthogonalLoop=1;jettySize=auto;html=1;entryX=0;entryY=0.5;entryDx=0;entryDy=0;" edge="1" parent="WIyWlLk6GJQsqaUBKTNV-1" source="mqw0G9-Hf6dsnu3yhuq2-14" target="mqw0G9-Hf6dsnu3yhuq2-34">
          <mxGeometry relative="1" as="geometry">
            <mxPoint x="430" y="680" as="targetPoint" />
          </mxGeometry>
        </mxCell>
        <mxCell id="mqw0G9-Hf6dsnu3yhuq2-14" value="Color Group A" style="rhombus;whiteSpace=wrap;html=1;fontStyle=0" vertex="1" parent="WIyWlLk6GJQsqaUBKTNV-1">
          <mxGeometry x="190" y="610" width="100" height="80" as="geometry" />
        </mxCell>
        <mxCell id="mqw0G9-Hf6dsnu3yhuq2-16" value="YES" style="text;strokeColor=none;fillColor=none;align=left;verticalAlign=middle;spacingLeft=4;spacingRight=4;overflow=hidden;points=[[0,0.5],[1,0.5]];portConstraint=eastwest;rotatable=0;whiteSpace=wrap;html=1;" vertex="1" parent="WIyWlLk6GJQsqaUBKTNV-1">
          <mxGeometry x="140" y="630" width="40" height="20" as="geometry" />
        </mxCell>
        <mxCell id="mqw0G9-Hf6dsnu3yhuq2-31" value="" style="edgeStyle=orthogonalEdgeStyle;rounded=0;orthogonalLoop=1;jettySize=auto;html=1;entryX=0;entryY=0.5;entryDx=0;entryDy=0;" edge="1" parent="WIyWlLk6GJQsqaUBKTNV-1" source="mqw0G9-Hf6dsnu3yhuq2-19" target="mqw0G9-Hf6dsnu3yhuq2-34">
          <mxGeometry relative="1" as="geometry">
            <mxPoint x="430" y="790" as="targetPoint" />
          </mxGeometry>
        </mxCell>
        <mxCell id="mqw0G9-Hf6dsnu3yhuq2-19" value="Color Group B" style="rhombus;whiteSpace=wrap;html=1;fontStyle=0" vertex="1" parent="WIyWlLk6GJQsqaUBKTNV-1">
          <mxGeometry x="190" y="720" width="100" height="80" as="geometry" />
        </mxCell>
        <mxCell id="mqw0G9-Hf6dsnu3yhuq2-33" value="" style="edgeStyle=orthogonalEdgeStyle;rounded=0;orthogonalLoop=1;jettySize=auto;html=1;entryX=0;entryY=0.5;entryDx=0;entryDy=0;" edge="1" parent="WIyWlLk6GJQsqaUBKTNV-1" source="mqw0G9-Hf6dsnu3yhuq2-27" target="mqw0G9-Hf6dsnu3yhuq2-34">
          <mxGeometry relative="1" as="geometry">
            <mxPoint x="430" y="900" as="targetPoint" />
            <Array as="points">
              <mxPoint x="340" y="870" />
              <mxPoint x="340" y="760" />
            </Array>
          </mxGeometry>
        </mxCell>
        <mxCell id="mqw0G9-Hf6dsnu3yhuq2-27" value="Color Group C" style="rhombus;whiteSpace=wrap;html=1;fontStyle=0" vertex="1" parent="WIyWlLk6GJQsqaUBKTNV-1">
          <mxGeometry x="190" y="830" width="100" height="80" as="geometry" />
        </mxCell>
        <mxCell id="mqw0G9-Hf6dsnu3yhuq2-36" value="" style="edgeStyle=orthogonalEdgeStyle;rounded=0;orthogonalLoop=1;jettySize=auto;html=1;entryX=0;entryY=0.5;entryDx=0;entryDy=0;exitX=1;exitY=0.5;exitDx=0;exitDy=0;" edge="1" parent="WIyWlLk6GJQsqaUBKTNV-1" source="mqw0G9-Hf6dsnu3yhuq2-34" target="mqw0G9-Hf6dsnu3yhuq2-49">
          <mxGeometry relative="1" as="geometry">
            <mxPoint x="540" y="780" as="sourcePoint" />
            <mxPoint x="600" y="680" as="targetPoint" />
            <Array as="points">
              <mxPoint x="560" y="760" />
              <mxPoint x="560" y="670" />
            </Array>
          </mxGeometry>
        </mxCell>
        <mxCell id="mqw0G9-Hf6dsnu3yhuq2-38" value="" style="edgeStyle=orthogonalEdgeStyle;rounded=0;orthogonalLoop=1;jettySize=auto;html=1;entryX=0;entryY=0.5;entryDx=0;entryDy=0;" edge="1" parent="WIyWlLk6GJQsqaUBKTNV-1" source="mqw0G9-Hf6dsnu3yhuq2-34" target="mqw0G9-Hf6dsnu3yhuq2-48">
          <mxGeometry relative="1" as="geometry">
            <mxPoint x="600" y="760" as="targetPoint" />
          </mxGeometry>
        </mxCell>
        <mxCell id="mqw0G9-Hf6dsnu3yhuq2-39" value="" style="edgeStyle=orthogonalEdgeStyle;rounded=0;orthogonalLoop=1;jettySize=auto;html=1;exitX=1;exitY=0.5;exitDx=0;exitDy=0;entryX=0;entryY=0.5;entryDx=0;entryDy=0;" edge="1" parent="WIyWlLk6GJQsqaUBKTNV-1" source="mqw0G9-Hf6dsnu3yhuq2-34" target="mqw0G9-Hf6dsnu3yhuq2-47">
          <mxGeometry relative="1" as="geometry">
            <mxPoint x="590" y="820" as="targetPoint" />
            <Array as="points">
              <mxPoint x="560" y="760" />
              <mxPoint x="560" y="850" />
            </Array>
          </mxGeometry>
        </mxCell>
        <mxCell id="mqw0G9-Hf6dsnu3yhuq2-34" value="Servo motor send to container" style="rounded=1;whiteSpace=wrap;html=1;arcSize=16;" vertex="1" parent="WIyWlLk6GJQsqaUBKTNV-1">
          <mxGeometry x="390" y="730" width="120" height="60" as="geometry" />
        </mxCell>
        <mxCell id="mqw0G9-Hf6dsnu3yhuq2-40" value="YES" style="text;html=1;align=center;verticalAlign=middle;whiteSpace=wrap;rounded=0;" vertex="1" parent="WIyWlLk6GJQsqaUBKTNV-1">
          <mxGeometry x="520" y="740" width="40" height="20" as="geometry" />
        </mxCell>
        <mxCell id="mqw0G9-Hf6dsnu3yhuq2-43" value="YES" style="text;strokeColor=none;fillColor=none;align=left;verticalAlign=middle;spacingLeft=4;spacingRight=4;overflow=hidden;points=[[0,0.5],[1,0.5]];portConstraint=eastwest;rotatable=0;whiteSpace=wrap;html=1;" vertex="1" parent="WIyWlLk6GJQsqaUBKTNV-1">
          <mxGeometry x="140" y="740" width="40" height="20" as="geometry" />
        </mxCell>
        <mxCell id="mqw0G9-Hf6dsnu3yhuq2-44" value="YES" style="text;strokeColor=none;fillColor=none;align=left;verticalAlign=middle;spacingLeft=4;spacingRight=4;overflow=hidden;points=[[0,0.5],[1,0.5]];portConstraint=eastwest;rotatable=0;whiteSpace=wrap;html=1;" vertex="1" parent="WIyWlLk6GJQsqaUBKTNV-1">
          <mxGeometry x="140" y="850" width="40" height="20" as="geometry" />
        </mxCell>
        <mxCell id="mqw0G9-Hf6dsnu3yhuq2-47" value="&lt;font style=&quot;font-size: 10px;&quot;&gt;Move to Container C&lt;/font&gt;" style="rhombus;whiteSpace=wrap;html=1;fontStyle=0" vertex="1" parent="WIyWlLk6GJQsqaUBKTNV-1">
          <mxGeometry x="610" y="820" width="110" height="60" as="geometry" />
        </mxCell>
        <mxCell id="mqw0G9-Hf6dsnu3yhuq2-48" value="&lt;font style=&quot;font-size: 10px;&quot;&gt;Move to Container B&lt;/font&gt;" style="rhombus;whiteSpace=wrap;html=1;fontStyle=0" vertex="1" parent="WIyWlLk6GJQsqaUBKTNV-1">
          <mxGeometry x="610" y="730" width="110" height="60" as="geometry" />
        </mxCell>
        <mxCell id="mqw0G9-Hf6dsnu3yhuq2-49" value="&lt;font style=&quot;font-size: 10px;&quot;&gt;Move to Container A&lt;/font&gt;" style="rhombus;whiteSpace=wrap;html=1;fontStyle=0" vertex="1" parent="WIyWlLk6GJQsqaUBKTNV-1">
          <mxGeometry x="610" y="640" width="110" height="60" as="geometry" />
        </mxCell>
      </root>
    </mxGraphModel>
  </diagram>
</mxfile>
